<svg xmlns="http://www.w3.org/2000/svg" xmlns:xlink="http://www.w3.org/1999/xlink" version="1.1" data-diagram-type="CLASS" style="width:1741px;height:1105px;background:#FFFFFF;" width="1741px" height="1105px" viewBox="0 0 1741 1105" zoomAndPan="magnify" preserveAspectRatio="none" contentStyleType="text/css"><?plantuml 1.2026.8beta1?><defs/><g font-family="sans-serif" lengthAdjust="spacing"><!--cluster Enums--><g class="cluster" data-qualified-name="Enums" id="ent0001" data-source-line="12"><rect x="7" y="927.5" width="560" height="147.89" fill="none" style="stroke:#000;stroke-width:1.5;" rx="4" ry="4"/><text x="260.791" y="942.495" fill="#000" font-size="14" textLength="52.418" font-weight="700">Enums</text></g><!--cluster Controllers--><g class="cluster" data-qualified-name="Controllers" id="ent0005" data-source-line="33"><rect x="406" y="7" width="1018" height="99" fill="none" style="stroke:#000;stroke-width:1.5;" rx="4" ry="4"/><text x="871.298" y="21.995" fill="#000" font-size="14" textLength="87.404" font-weight="700">Controllers</text></g><!--cluster Repositories--><g class="cluster" data-qualified-name="Repositories" id="ent0011" data-source-line="44"><rect x="369" y="130" width="1358" height="107.27" fill="none" style="stroke:#000;stroke-width:1.5;" rx="4" ry="4"/><text x="998.556" y="144.995" fill="#000" font-size="14" textLength="98.889" font-weight="700">Repositories</text></g><!--cluster Model / Entities--><g class="cluster" data-qualified-name="Model . Entities" id="ent0018" data-source-line="56"><rect x="591" y="261.27" width="477" height="830.42" fill="none" style="stroke:#000;stroke-width:1.5;" rx="4" ry="4"/><text x="767.966" y="276.265" fill="#000" font-size="14" textLength="123.067" font-weight="700">Model / Entities</text></g><!--class Role--><g class="entity" data-qualified-name="Enums.Role" id="ent0002" data-source-line="13"><rect x="23.08" y="970.65" width="175.83" height="80.594" fill="#F1F1F1" style="stroke:#181818;stroke-width:0.5;" rx="4" ry="4"/><ellipse cx="91.347" cy="986.65" rx="11" ry="11" fill="#EB937F" style="stroke:#181818;stroke-width:1;"/><path d="M95.456,992.65 L87.738,992.65 L87.738,980.259 L95.456,980.259 L95.456,982.416 L90.191,982.416 L90.191,985.088 L94.956,985.088 L94.956,987.244 L90.191,987.244 L90.191,990.494 L95.456,990.494 L95.456,992.65 Z " fill="#000"/><text x="111.847" y="991.497" fill="#000" font-size="14" textLength="30.796">Role</text><line x1="24.08" y1="1002.65" x2="197.91" y2="1002.65" style="stroke:#181818;stroke-width:0.5;"/><text x="29.08" y="1019.645" fill="#000" font-size="14" textLength="143.657">ROLE_CORRENTISTA</text><text x="29.08" y="1035.942" fill="#000" font-size="14" textLength="163.83">ROLE_ADMINISTRADOR</text><line x1="24.08" y1="1043.244" x2="197.91" y2="1043.244" style="stroke:#181818;stroke-width:0.5;"/></g><!--class TipoTransacao--><g class="entity" data-qualified-name="Enums.TipoTransacao" id="ent0003" data-source-line="18"><rect x="248.82" y="970.65" width="134.368" height="80.594" fill="#F1F1F1" style="stroke:#181818;stroke-width:0.5;" rx="4" ry="4"/><ellipse cx="263.82" cy="986.65" rx="11" ry="11" fill="#EB937F" style="stroke:#181818;stroke-width:1;"/><path d="M267.929,992.65 L260.211,992.65 L260.211,980.259 L267.929,980.259 L267.929,982.416 L262.664,982.416 L262.664,985.088 L267.429,985.088 L267.429,987.244 L262.664,987.244 L262.664,990.494 L267.929,990.494 L267.929,992.65 Z " fill="#000"/><text x="277.82" y="991.497" fill="#000" font-size="14" textLength="102.368">TipoTransacao</text><line x1="249.82" y1="1002.65" x2="382.188" y2="1002.65" style="stroke:#181818;stroke-width:0.5;"/><text x="254.82" y="1019.645" fill="#000" font-size="14" textLength="62.829">CREDITO</text><text x="254.82" y="1035.942" fill="#000" font-size="14" textLength="52.931">DEBITO</text><line x1="249.82" y1="1043.244" x2="382.188" y2="1043.244" style="stroke:#181818;stroke-width:0.5;"/></g><!--class Natureza--><g class="entity" data-qualified-name="Enums.Natureza" id="ent0004" data-source-line="23"><rect x="433.22" y="962.5" width="117.561" height="96.891" fill="#F1F1F1" style="stroke:#181818;stroke-width:0.5;" rx="4" ry="4"/><ellipse cx="458.052" cy="978.5" rx="11" ry="11" fill="#EB937F" style="stroke:#181818;stroke-width:1;"/><path d="M462.162,984.5 L454.443,984.5 L454.443,972.109 L462.162,972.109 L462.162,974.266 L456.896,974.266 L456.896,976.938 L461.662,976.938 L461.662,979.094 L456.896,979.094 L456.896,982.344 L462.162,982.344 L462.162,984.5 Z " fill="#000"/><text x="474.237" y="983.347" fill="#000" font-size="14" textLength="63.711">Natureza</text><line x1="434.22" y1="994.5" x2="549.781" y2="994.5" style="stroke:#181818;stroke-width:0.5;"/><text x="439.22" y="1011.495" fill="#000" font-size="14" textLength="67.532">ENTRADA</text><text x="439.22" y="1027.792" fill="#000" font-size="14" textLength="42.95">SAIDA</text><text x="439.22" y="1044.089" fill="#000" font-size="14" textLength="105.561">INVESTIMENTO</text><line x1="434.22" y1="1051.391" x2="549.781" y2="1051.391" style="stroke:#181818;stroke-width:0.5;"/></g><!--class AuthController--><g class="entity" data-qualified-name="Controllers.AuthController" id="ent0006" data-source-line="34"><rect x="422.01" y="42" width="133.985" height="48" fill="#F1F1F1" style="stroke:#181818;stroke-width:0.5;" rx="4" ry="4"/><ellipse cx="437.01" cy="58" rx="11" ry="11" fill="#ADD1B2" style="stroke:#181818;stroke-width:1;"/><path d="M439.979,63.641 Q439.401,63.938 438.76,64.078 Q438.119,64.234 437.416,64.234 Q434.916,64.234 433.588,62.594 Q432.276,60.938 432.276,57.813 Q432.276,54.688 433.588,53.031 Q434.916,51.375 437.416,51.375 Q438.119,51.375 438.76,51.531 Q439.416,51.688 439.979,51.984 L439.979,54.703 Q439.354,54.125 438.76,53.859 Q438.166,53.578 437.541,53.578 Q436.198,53.578 435.51,54.656 Q434.823,55.719 434.823,57.813 Q434.823,59.906 435.51,60.984 Q436.198,62.047 437.541,62.047 Q438.166,62.047 438.76,61.781 Q439.354,61.5 439.979,60.922 L439.979,63.641 Z " fill="#000"/><text x="451.01" y="62.847" fill="#000" font-size="14" textLength="101.985">AuthController</text><line x1="423.01" y1="74" x2="554.995" y2="74" style="stroke:#181818;stroke-width:0.5;"/><line x1="423.01" y1="82" x2="554.995" y2="82" style="stroke:#181818;stroke-width:0.5;"/></g><!--class UsuarioController--><g class="entity" data-qualified-name="Controllers.UsuarioController" id="ent0007" data-source-line="35"><rect x="605.81" y="42" width="154.377" height="48" fill="#F1F1F1" style="stroke:#181818;stroke-width:0.5;" rx="4" ry="4"/><ellipse cx="620.81" cy="58" rx="11" ry="11" fill="#ADD1B2" style="stroke:#181818;stroke-width:1;"/><path d="M623.779,63.641 Q623.201,63.938 622.56,64.078 Q621.919,64.234 621.216,64.234 Q618.716,64.234 617.388,62.594 Q616.076,60.938 616.076,57.813 Q616.076,54.688 617.388,53.031 Q618.716,51.375 621.216,51.375 Q621.919,51.375 622.56,51.531 Q623.216,51.688 623.779,51.984 L623.779,54.703 Q623.154,54.125 622.56,53.859 Q621.966,53.578 621.341,53.578 Q619.998,53.578 619.31,54.656 Q618.623,55.719 618.623,57.813 Q618.623,59.906 619.31,60.984 Q619.998,62.047 621.341,62.047 Q621.966,62.047 622.56,61.781 Q623.154,61.5 623.779,60.922 L623.779,63.641 Z " fill="#000"/><text x="634.81" y="62.847" fill="#000" font-size="14" textLength="122.377">UsuarioController</text><line x1="606.81" y1="74" x2="759.187" y2="74" style="stroke:#181818;stroke-width:0.5;"/><line x1="606.81" y1="82" x2="759.187" y2="82" style="stroke:#181818;stroke-width:0.5;"/></g><!--class ContaController--><g class="entity" data-qualified-name="Controllers.ContaController" id="ent0008" data-source-line="36"><rect x="809.77" y="42" width="142.455" height="48" fill="#F1F1F1" style="stroke:#181818;stroke-width:0.5;" rx="4" ry="4"/><ellipse cx="824.77" cy="58" rx="11" ry="11" fill="#ADD1B2" style="stroke:#181818;stroke-width:1;"/><path d="M827.739,63.641 Q827.161,63.938 826.52,64.078 Q825.879,64.234 825.176,64.234 Q822.676,64.234 821.348,62.594 Q820.036,60.938 820.036,57.813 Q820.036,54.688 821.348,53.031 Q822.676,51.375 825.176,51.375 Q825.879,51.375 826.52,51.531 Q827.176,51.688 827.739,51.984 L827.739,54.703 Q827.114,54.125 826.52,53.859 Q825.926,53.578 825.301,53.578 Q823.958,53.578 823.27,54.656 Q822.583,55.719 822.583,57.813 Q822.583,59.906 823.27,60.984 Q823.958,62.047 825.301,62.047 Q825.926,62.047 826.52,61.781 Q827.114,61.5 827.739,60.922 L827.739,63.641 Z " fill="#000"/><text x="838.77" y="62.847" fill="#000" font-size="14" textLength="110.455">ContaController</text><line x1="810.77" y1="74" x2="951.225" y2="74" style="stroke:#181818;stroke-width:0.5;"/><line x1="810.77" y1="82" x2="951.225" y2="82" style="stroke:#181818;stroke-width:0.5;"/></g><!--class TransacaoController--><g class="entity" data-qualified-name="Controllers.TransacaoController" id="ent0009" data-source-line="37"><rect x="1002.18" y="42" width="173.647" height="48" fill="#F1F1F1" style="stroke:#181818;stroke-width:0.5;" rx="4" ry="4"/><ellipse cx="1017.18" cy="58" rx="11" ry="11" fill="#ADD1B2" style="stroke:#181818;stroke-width:1;"/><path d="M1020.149,63.641 Q1019.571,63.938 1018.93,64.078 Q1018.289,64.234 1017.586,64.234 Q1015.086,64.234 1013.758,62.594 Q1012.446,60.938 1012.446,57.813 Q1012.446,54.688 1013.758,53.031 Q1015.086,51.375 1017.586,51.375 Q1018.289,51.375 1018.93,51.531 Q1019.586,51.688 1020.149,51.984 L1020.149,54.703 Q1019.524,54.125 1018.93,53.859 Q1018.336,53.578 1017.711,53.578 Q1016.368,53.578 1015.68,54.656 Q1014.993,55.719 1014.993,57.813 Q1014.993,59.906 1015.68,60.984 Q1016.368,62.047 1017.711,62.047 Q1018.336,62.047 1018.93,61.781 Q1019.524,61.5 1020.149,60.922 L1020.149,63.641 Z " fill="#000"/><text x="1031.18" y="62.847" fill="#000" font-size="14" textLength="141.647">TransacaoController</text><line x1="1003.18" y1="74" x2="1174.827" y2="74" style="stroke:#181818;stroke-width:0.5;"/><line x1="1003.18" y1="82" x2="1174.827" y2="82" style="stroke:#181818;stroke-width:0.5;"/></g><!--class ComentarioController--><g class="entity" data-qualified-name="Controllers.ComentarioController" id="ent0010" data-source-line="38"><rect x="1225.54" y="42" width="182.917" height="48" fill="#F1F1F1" style="stroke:#181818;stroke-width:0.5;" rx="4" ry="4"/><ellipse cx="1240.54" cy="58" rx="11" ry="11" fill="#ADD1B2" style="stroke:#181818;stroke-width:1;"/><path d="M1243.509,63.641 Q1242.931,63.938 1242.29,64.078 Q1241.649,64.234 1240.946,64.234 Q1238.446,64.234 1237.118,62.594 Q1235.806,60.938 1235.806,57.813 Q1235.806,54.688 1237.118,53.031 Q1238.446,51.375 1240.946,51.375 Q1241.649,51.375 1242.29,51.531 Q1242.946,51.688 1243.509,51.984 L1243.509,54.703 Q1242.884,54.125 1242.29,53.859 Q1241.696,53.578 1241.071,53.578 Q1239.728,53.578 1239.04,54.656 Q1238.353,55.719 1238.353,57.813 Q1238.353,59.906 1239.04,60.984 Q1239.728,62.047 1241.071,62.047 Q1241.696,62.047 1242.29,61.781 Q1242.884,61.5 1243.509,60.922 L1243.509,63.641 Z " fill="#000"/><text x="1254.54" y="62.847" fill="#000" font-size="14" textLength="150.917">ComentarioController</text><line x1="1226.54" y1="74" x2="1407.457" y2="74" style="stroke:#181818;stroke-width:0.5;"/><line x1="1226.54" y1="82" x2="1407.457" y2="82" style="stroke:#181818;stroke-width:0.5;"/></g><!--class UsuarioRepository--><g class="entity" data-qualified-name="Repositories.UsuarioRepository" id="ent0012" data-source-line="45"><rect x="384.86" y="165" width="160.276" height="56.266" fill="#F1F1F1" style="stroke:#181818;stroke-width:0.5;" rx="4" ry="4"/><ellipse cx="399.86" cy="185.133" rx="11" ry="11" fill="#B4A7E5" style="stroke:#181818;stroke-width:1;"/><path d="M395.782,180.898 L395.782,178.742 L403.173,178.742 L403.173,180.898 L400.704,180.898 L400.704,188.977 L403.173,188.977 L403.173,191.133 L395.782,191.133 L395.782,188.977 L398.251,188.977 L398.251,180.898 L395.782,180.898 Z " fill="#000"/><text x="443.897" y="181.139" fill="#000" font-size="12" textLength="68.203" font-style="italic">«interface»</text><text x="413.86" y="196.964" fill="#000" font-size="14" textLength="128.276" font-style="italic">UsuarioRepository</text><line x1="385.86" y1="205.266" x2="544.136" y2="205.266" style="stroke:#181818;stroke-width:0.5;"/><line x1="385.86" y1="213.266" x2="544.136" y2="213.266" style="stroke:#181818;stroke-width:0.5;"/></g><!--class ContaRepository--><g class="entity" data-qualified-name="Repositories.ContaRepository" id="ent0013" data-source-line="46"><rect x="594.82" y="165" width="148.354" height="56.266" fill="#F1F1F1" style="stroke:#181818;stroke-width:0.5;" rx="4" ry="4"/><ellipse cx="609.82" cy="185.133" rx="11" ry="11" fill="#B4A7E5" style="stroke:#181818;stroke-width:1;"/><path d="M605.742,180.898 L605.742,178.742 L613.133,178.742 L613.133,180.898 L610.664,180.898 L610.664,188.977 L613.133,188.977 L613.133,191.133 L605.742,191.133 L605.742,188.977 L608.211,188.977 L608.211,180.898 L605.742,180.898 Z " fill="#000"/><text x="647.896" y="181.139" fill="#000" font-size="12" textLength="68.203" font-style="italic">«interface»</text><text x="623.82" y="196.964" fill="#000" font-size="14" textLength="116.354" font-style="italic">ContaRepository</text><line x1="595.82" y1="205.266" x2="742.174" y2="205.266" style="stroke:#181818;stroke-width:0.5;"/><line x1="595.82" y1="213.266" x2="742.174" y2="213.266" style="stroke:#181818;stroke-width:0.5;"/></g><!--class CartaoDeCreditoRepository--><g class="entity" data-qualified-name="Repositories.CartaoDeCreditoRepository" id="ent0014" data-source-line="47"><rect x="792.91" y="165" width="224.186" height="56.266" fill="#F1F1F1" style="stroke:#181818;stroke-width:0.5;" rx="4" ry="4"/><ellipse cx="807.91" cy="185.133" rx="11" ry="11" fill="#B4A7E5" style="stroke:#181818;stroke-width:1;"/><path d="M803.832,180.898 L803.832,178.742 L811.223,178.742 L811.223,180.898 L808.754,180.898 L808.754,188.977 L811.223,188.977 L811.223,191.133 L803.832,191.133 L803.832,188.977 L806.301,188.977 L806.301,180.898 L803.832,180.898 Z " fill="#000"/><text x="883.901" y="181.139" fill="#000" font-size="12" textLength="68.203" font-style="italic">«interface»</text><text x="821.91" y="196.964" fill="#000" font-size="14" textLength="192.186" font-style="italic">CartaoDeCreditoRepository</text><line x1="793.91" y1="205.266" x2="1016.096" y2="205.266" style="stroke:#181818;stroke-width:0.5;"/><line x1="793.91" y1="213.266" x2="1016.096" y2="213.266" style="stroke:#181818;stroke-width:0.5;"/></g><!--class TransacaoRepository--><g class="entity" data-qualified-name="Repositories.TransacaoRepository" id="ent0015" data-source-line="48"><rect x="1067.23" y="165" width="179.547" height="56.266" fill="#F1F1F1" style="stroke:#181818;stroke-width:0.5;" rx="4" ry="4"/><ellipse cx="1082.23" cy="185.133" rx="11" ry="11" fill="#B4A7E5" style="stroke:#181818;stroke-width:1;"/><path d="M1078.152,180.898 L1078.152,178.742 L1085.543,178.742 L1085.543,180.898 L1083.074,180.898 L1083.074,188.977 L1085.543,188.977 L1085.543,191.133 L1078.152,191.133 L1078.152,188.977 L1080.621,188.977 L1080.621,180.898 L1078.152,180.898 Z " fill="#000"/><text x="1135.902" y="181.139" fill="#000" font-size="12" textLength="68.203" font-style="italic">«interface»</text><text x="1096.23" y="196.964" fill="#000" font-size="14" textLength="147.547" font-style="italic">TransacaoRepository</text><line x1="1068.23" y1="205.266" x2="1245.777" y2="205.266" style="stroke:#181818;stroke-width:0.5;"/><line x1="1068.23" y1="213.266" x2="1245.777" y2="213.266" style="stroke:#181818;stroke-width:0.5;"/></g><!--class ComentarioRepository--><g class="entity" data-qualified-name="Repositories.ComentarioRepository" id="ent0016" data-source-line="49"><rect x="1296.59" y="165" width="188.816" height="56.266" fill="#F1F1F1" style="stroke:#181818;stroke-width:0.5;" rx="4" ry="4"/><ellipse cx="1311.59" cy="185.133" rx="11" ry="11" fill="#B4A7E5" style="stroke:#181818;stroke-width:1;"/><path d="M1307.512,180.898 L1307.512,178.742 L1314.903,178.742 L1314.903,180.898 L1312.434,180.898 L1312.434,188.977 L1314.903,188.977 L1314.903,191.133 L1307.512,191.133 L1307.512,188.977 L1309.981,188.977 L1309.981,180.898 L1307.512,180.898 Z " fill="#000"/><text x="1369.897" y="181.139" fill="#000" font-size="12" textLength="68.203" font-style="italic">«interface»</text><text x="1325.59" y="196.964" fill="#000" font-size="14" textLength="156.816" font-style="italic">ComentarioRepository</text><line x1="1297.59" y1="205.266" x2="1484.406" y2="205.266" style="stroke:#181818;stroke-width:0.5;"/><line x1="1297.59" y1="213.266" x2="1484.406" y2="213.266" style="stroke:#181818;stroke-width:0.5;"/></g><!--class CategoriaRepository--><g class="entity" data-qualified-name="Repositories.CategoriaRepository" id="ent0017" data-source-line="50"><rect x="1535.4" y="165" width="175.206" height="56.266" fill="#F1F1F1" style="stroke:#181818;stroke-width:0.5;" rx="4" ry="4"/><ellipse cx="1550.4" cy="185.133" rx="11" ry="11" fill="#B4A7E5" style="stroke:#181818;stroke-width:1;"/><path d="M1546.322,180.898 L1546.322,178.742 L1553.713,178.742 L1553.713,180.898 L1551.244,180.898 L1551.244,188.977 L1553.713,188.977 L1553.713,191.133 L1546.322,191.133 L1546.322,188.977 L1548.791,188.977 L1548.791,180.898 L1546.322,180.898 Z " fill="#000"/><text x="1601.901" y="181.139" fill="#000" font-size="12" textLength="68.203" font-style="italic">«interface»</text><text x="1564.4" y="196.964" fill="#000" font-size="14" textLength="143.206" font-style="italic">CategoriaRepository</text><line x1="1536.4" y1="205.266" x2="1709.606" y2="205.266" style="stroke:#181818;stroke-width:0.5;"/><line x1="1536.4" y1="213.266" x2="1709.606" y2="213.266" style="stroke:#181818;stroke-width:0.5;"/></g><!--class Usuario--><g class="entity" data-qualified-name="Model . Entities.Usuario" id="ent0019" data-source-line="58"><rect x="607.39" y="296.27" width="157.216" height="162.078" fill="#F1F1F1" style="stroke:#181818;stroke-width:0.5;" rx="4" ry="4"/><ellipse cx="655.146" cy="312.27" rx="11" ry="11" fill="#ADD1B2" style="stroke:#181818;stroke-width:1;"/><path d="M658.115,317.911 Q657.536,318.208 656.896,318.348 Q656.255,318.504 655.552,318.504 Q653.052,318.504 651.724,316.864 Q650.411,315.208 650.411,312.083 Q650.411,308.958 651.724,307.301 Q653.052,305.645 655.552,305.645 Q656.255,305.645 656.896,305.801 Q657.552,305.958 658.115,306.254 L658.115,308.973 Q657.49,308.395 656.896,308.129 Q656.302,307.848 655.677,307.848 Q654.333,307.848 653.646,308.926 Q652.958,309.989 652.958,312.083 Q652.958,314.176 653.646,315.254 Q654.333,316.317 655.677,316.317 Q656.302,316.317 656.896,316.051 Q657.49,315.77 658.115,315.192 L658.115,317.911 Z " fill="#000"/><text x="675.646" y="317.117" fill="#000" font-size="14" textLength="53.204">Usuario</text><line x1="608.39" y1="328.27" x2="763.606" y2="328.27" style="stroke:#181818;stroke-width:0.5;"/><text x="613.39" y="345.265" fill="#000" font-size="14" textLength="56.403">-Long id</text><text x="613.39" y="361.562" fill="#000" font-size="14" textLength="90.973">-String nome</text><text x="613.39" y="377.859" fill="#000" font-size="14" textLength="85.388">-String login</text><text x="613.39" y="394.156" fill="#000" font-size="14" textLength="93.516">-String senha</text><text x="613.39" y="410.453" fill="#000" font-size="14" textLength="67.122">-Role role</text><text x="613.39" y="426.749" fill="#000" font-size="14" textLength="139.221">-boolean bloqueado</text><text x="613.39" y="443.046" fill="#000" font-size="14" textLength="145.216">-List&lt;Conta> contas</text><line x1="608.39" y1="450.348" x2="763.606" y2="450.348" style="stroke:#181818;stroke-width:0.5;"/></g><!--class Conta--><g class="entity" data-qualified-name="Model . Entities.Conta" id="ent0020" data-source-line="68"><rect x="627.67" y="518.35" width="218.65" height="129.484" fill="#F1F1F1" style="stroke:#181818;stroke-width:0.5;" rx="4" ry="4"/><ellipse cx="712.104" cy="534.35" rx="11" ry="11" fill="#ADD1B2" style="stroke:#181818;stroke-width:1;"/><path d="M715.073,539.991 Q714.495,540.288 713.854,540.428 Q713.213,540.584 712.51,540.584 Q710.01,540.584 708.682,538.944 Q707.37,537.288 707.37,534.163 Q707.37,531.038 708.682,529.381 Q710.01,527.725 712.51,527.725 Q713.213,527.725 713.854,527.881 Q714.51,528.038 715.073,528.334 L715.073,531.053 Q714.448,530.475 713.854,530.209 Q713.26,529.928 712.635,529.928 Q711.292,529.928 710.604,531.006 Q709.917,532.069 709.917,534.163 Q709.917,536.256 710.604,537.334 Q711.292,538.397 712.635,538.397 Q713.26,538.397 713.854,538.131 Q714.448,537.85 715.073,537.272 L715.073,539.991 Z " fill="#000"/><text x="732.604" y="539.197" fill="#000" font-size="14" textLength="41.282">Conta</text><line x1="628.67" y1="550.35" x2="845.32" y2="550.35" style="stroke:#181818;stroke-width:0.5;"/><text x="633.67" y="567.345" fill="#000" font-size="14" textLength="56.403">-Long id</text><text x="633.67" y="583.642" fill="#000" font-size="14" textLength="105.602">-String numero</text><text x="633.67" y="599.939" fill="#000" font-size="14" textLength="118.262">-String descricao</text><text x="633.67" y="616.236" fill="#000" font-size="14" textLength="138.708">-Usuario correntista</text><text x="633.67" y="632.533" fill="#000" font-size="14" textLength="206.65">-List&lt;Transacao> transacoes</text><line x1="628.67" y1="639.834" x2="845.32" y2="639.834" style="stroke:#181818;stroke-width:0.5;"/></g><!--class CartaoDeCredito--><g class="entity" data-qualified-name="Model . Entities.CartaoDeCredito" id="ent0021" data-source-line="76"><rect x="607.32" y="756.72" width="191.354" height="80.594" fill="#F1F1F1" style="stroke:#181818;stroke-width:0.5;" rx="4" ry="4"/><ellipse cx="641.329" cy="772.72" rx="11" ry="11" fill="#ADD1B2" style="stroke:#181818;stroke-width:1;"/><path d="M644.297,778.361 Q643.719,778.658 643.079,778.798 Q642.438,778.954 641.735,778.954 Q639.235,778.954 637.907,777.314 Q636.594,775.658 636.594,772.533 Q636.594,769.408 637.907,767.751 Q639.235,766.095 641.735,766.095 Q642.438,766.095 643.079,766.251 Q643.735,766.408 644.297,766.704 L644.297,769.423 Q643.672,768.845 643.079,768.579 Q642.485,768.298 641.86,768.298 Q640.516,768.298 639.829,769.376 Q639.141,770.439 639.141,772.533 Q639.141,774.626 639.829,775.704 Q640.516,776.767 641.86,776.767 Q642.485,776.767 643.079,776.501 Q643.672,776.22 644.297,775.642 L644.297,778.361 Z " fill="#000"/><text x="659.553" y="777.567" fill="#000" font-size="14" textLength="117.113">CartaoDeCredito</text><line x1="608.32" y1="788.72" x2="797.674" y2="788.72" style="stroke:#181818;stroke-width:0.5;"/><text x="613.32" y="805.715" fill="#000" font-size="14" textLength="168.212">-Integer diaFechamento</text><text x="613.32" y="822.012" fill="#000" font-size="14" textLength="179.354">-BigDecimal limiteCredito</text><line x1="608.32" y1="829.314" x2="797.674" y2="829.314" style="stroke:#181818;stroke-width:0.5;"/></g><!--class Transacao--><g class="entity" data-qualified-name="Model . Entities.Transacao" id="ent0022" data-source-line="81"><rect x="848.29" y="707.83" width="203.427" height="178.375" fill="#F1F1F1" style="stroke:#181818;stroke-width:0.5;" rx="4" ry="4"/><ellipse cx="909.516" cy="723.83" rx="11" ry="11" fill="#ADD1B2" style="stroke:#181818;stroke-width:1;"/><path d="M912.485,729.471 Q911.907,729.768 911.266,729.908 Q910.625,730.064 909.922,730.064 Q907.422,730.064 906.094,728.424 Q904.782,726.768 904.782,723.643 Q904.782,720.518 906.094,718.861 Q907.422,717.205 909.922,717.205 Q910.625,717.205 911.266,717.361 Q911.922,717.518 912.485,717.814 L912.485,720.533 Q911.86,719.955 911.266,719.689 Q910.672,719.408 910.047,719.408 Q908.704,719.408 908.016,720.486 Q907.329,721.549 907.329,723.643 Q907.329,725.736 908.016,726.814 Q908.704,727.877 910.047,727.877 Q910.672,727.877 911.266,727.611 Q911.86,727.33 912.485,726.752 L912.485,729.471 Z " fill="#000"/><text x="930.016" y="728.677" fill="#000" font-size="14" textLength="72.475">Transacao</text><line x1="849.29" y1="739.83" x2="1050.717" y2="739.83" style="stroke:#181818;stroke-width:0.5;"/><text x="854.29" y="756.825" fill="#000" font-size="14" textLength="56.403">-Long id</text><text x="854.29" y="773.122" fill="#000" font-size="14" textLength="111.029">-LocalDate data</text><text x="854.29" y="789.419" fill="#000" font-size="14" textLength="118.262">-String descricao</text><text x="854.29" y="805.716" fill="#000" font-size="14" textLength="124.045">-BigDecimal valor</text><text x="854.29" y="822.013" fill="#000" font-size="14" textLength="191.427">-TipoTransacao movimento</text><text x="854.29" y="838.309" fill="#000" font-size="14" textLength="89.988">-Conta conta</text><text x="854.29" y="854.606" fill="#000" font-size="14" textLength="143.691">-Categoria categoria</text><text x="854.29" y="870.903" fill="#000" font-size="14" textLength="170.912">-Comentario comentario</text><line x1="849.29" y1="878.205" x2="1050.717" y2="878.205" style="stroke:#181818;stroke-width:0.5;"/></g><!--class Comentario--><g class="entity" data-qualified-name="Model . Entities.Comentario" id="ent0023" data-source-line="92"><rect x="691.31" y="962.5" width="163.389" height="96.891" fill="#F1F1F1" style="stroke:#181818;stroke-width:0.5;" rx="4" ry="4"/><ellipse cx="728.65" cy="978.5" rx="11" ry="11" fill="#ADD1B2" style="stroke:#181818;stroke-width:1;"/><path d="M731.619,984.141 Q731.041,984.438 730.4,984.578 Q729.759,984.734 729.056,984.734 Q726.556,984.734 725.228,983.094 Q723.916,981.438 723.916,978.313 Q723.916,975.188 725.228,973.531 Q726.556,971.875 729.056,971.875 Q729.759,971.875 730.4,972.031 Q731.056,972.188 731.619,972.484 L731.619,975.203 Q730.994,974.625 730.4,974.359 Q729.806,974.078 729.181,974.078 Q727.838,974.078 727.15,975.156 Q726.463,976.219 726.463,978.313 Q726.463,980.406 727.15,981.484 Q727.838,982.547 729.181,982.547 Q729.806,982.547 730.4,982.281 Q730.994,982 731.619,981.422 L731.619,984.141 Z " fill="#000"/><text x="747.614" y="983.347" fill="#000" font-size="14" textLength="81.744">Comentario</text><line x1="692.31" y1="994.5" x2="853.699" y2="994.5" style="stroke:#181818;stroke-width:0.5;"/><text x="697.31" y="1011.495" fill="#000" font-size="14" textLength="56.403">-Long id</text><text x="697.31" y="1027.792" fill="#000" font-size="14" textLength="87.726">-String texto</text><text x="697.31" y="1044.089" fill="#000" font-size="14" textLength="151.389">-Transacao transacao</text><line x1="692.31" y1="1051.391" x2="853.699" y2="1051.391" style="stroke:#181818;stroke-width:0.5;"/></g><!--class Categoria--><g class="entity" data-qualified-name="Model . Entities.Categoria" id="ent0024" data-source-line="98"><rect x="904.34" y="946.21" width="147.324" height="129.484" fill="#F1F1F1" style="stroke:#181818;stroke-width:0.5;" rx="4" ry="4"/><ellipse cx="940.576" cy="962.21" rx="11" ry="11" fill="#ADD1B2" style="stroke:#181818;stroke-width:1;"/><path d="M943.544,967.851 Q942.966,968.148 942.326,968.288 Q941.685,968.444 940.982,968.444 Q938.482,968.444 937.154,966.804 Q935.841,965.148 935.841,962.023 Q935.841,958.898 937.154,957.241 Q938.482,955.585 940.982,955.585 Q941.685,955.585 942.326,955.741 Q942.982,955.898 943.544,956.194 L943.544,958.913 Q942.919,958.335 942.326,958.069 Q941.732,957.788 941.107,957.788 Q939.763,957.788 939.076,958.866 Q938.388,959.929 938.388,962.023 Q938.388,964.116 939.076,965.194 Q939.763,966.257 941.107,966.257 Q941.732,966.257 942.326,965.991 Q942.919,965.71 943.544,965.132 L943.544,967.851 Z " fill="#000"/><text x="959.295" y="967.057" fill="#000" font-size="14" textLength="68.134">Categoria</text><line x1="905.34" y1="978.21" x2="1050.664" y2="978.21" style="stroke:#181818;stroke-width:0.5;"/><text x="910.34" y="995.205" fill="#000" font-size="14" textLength="56.403">-Long id</text><text x="910.34" y="1011.502" fill="#000" font-size="14" textLength="90.973">-String nome</text><text x="910.34" y="1027.799" fill="#000" font-size="14" textLength="100.283">-boolean ativo</text><text x="910.34" y="1044.096" fill="#000" font-size="14" textLength="135.324">-Natureza natureza</text><text x="910.34" y="1060.393" fill="#000" font-size="14" textLength="73.213">-int ordem</text><line x1="905.34" y1="1067.694" x2="1050.664" y2="1067.694" style="stroke:#181818;stroke-width:0.5;"/></g><!--reverse link Conta to CartaoDeCredito--><g class="link" data-entity-1="ent0020" data-entity-2="ent0021" id="lnk25" data-source-line="110" data-link-type="extension"><path d="M713.18,666.15 C713.18,701.43 713.18,725.93 713.18,756.48" style="stroke:#181818;stroke-width:1;" fill="none" id="Conta-backto-CartaoDeCredito" codeLine="110"/><polygon points="713.18,648.15,707.18,666.15,719.18,666.15,713.18,648.15" fill="none" style="stroke:#181818;stroke-width:1;stroke-linejoin:miter;stroke-miterlimit:10;"/></g><!--reverse link Usuario to Conta--><g class="link" data-entity-1="ent0019" data-entity-2="ent0020" id="lnk26" data-source-line="115" data-link-type="composition"><path d="M696.14,470.64 C696.14,490.3 696.14,499.06 696.14,517.87" style="stroke:#181818;stroke-width:1;" fill="none" id="Usuario-backto-Conta" codeLine="115"/><polygon points="696.14,458.64,692.14,464.64,696.14,470.64,700.14,464.64,696.14,458.64" fill="#181818" style="stroke:#181818;stroke-width:1;stroke-linejoin:miter;stroke-miterlimit:10;"/><text x="697.14" y="484.317" fill="#000" font-size="13" textLength="41.603">possui</text><text x="688.679" y="478.347" fill="#000" font-size="13">1</text><text x="667.743" y="507.444" fill="#000" font-size="13" textLength="23.036">0..*</text></g><!--link Usuario to Role--><!--link Usuario to Role--><g class="link" data-entity-1="ent0019" data-entity-2="ent0002" id="lnk28" data-source-line="117" data-link-type="dependency"><path d="M606.94,418.69 C455.71,418.69 140.31,418.69 140.31,418.69 C140.31,418.69 140.31,831.43 140.31,965.24" style="stroke:#181818;stroke-width:1;stroke-dasharray:7,7;" fill="none" id="Usuario-to-Role" codeLine="117"/><polygon points="140.31,970.24,144.31,961.24,140.31,965.24,136.31,961.24,140.31,970.24" fill="#181818" style="stroke:#181818;stroke-width:1;stroke-linejoin:miter;stroke-miterlimit:10;"/></g><!--reverse link Conta to Transacao--><g class="link" data-entity-1="ent0020" data-entity-2="ent0022" id="lnk29" data-source-line="119" data-link-type="composition"><path d="M822.5,660.27 C822.5,700.59 822.5,732.69 822.5,732.69 C822.5,732.69 833.01,732.69 848,732.69" style="stroke:#181818;stroke-width:1;" fill="none" id="Conta-backto-Transacao" codeLine="119"/><polygon points="822.5,648.27,818.5,654.27,822.5,660.27,826.5,654.27,822.5,648.27" fill="#181818" style="stroke:#181818;stroke-width:1;stroke-linejoin:miter;stroke-miterlimit:10;"/><text x="772.5" y="699.297" fill="#000" font-size="13" textLength="49.099">contém</text><text x="822.919" y="667.839" fill="#000" font-size="13">1</text><text x="817.375" y="724.935" fill="#000" font-size="13" textLength="23.036">0..*</text></g><!--link Transacao to TipoTransacao--><g class="link" data-entity-1="ent0022" data-entity-2="ent0003" id="lnk30" data-source-line="120" data-link-type="dependency"><path d="M848.14,853.69 C668.92,853.69 316,853.69 316,853.69 C316,853.69 316,918.86 316,965.45" style="stroke:#181818;stroke-width:1;stroke-dasharray:7,7;" fill="none" id="Transacao-to-TipoTransacao" codeLine="120"/><polygon points="316,970.45,320,961.45,316,965.45,312,961.45,316,970.45" fill="#181818" style="stroke:#181818;stroke-width:1;stroke-linejoin:miter;stroke-miterlimit:10;"/></g><!--link Transacao to Categoria--><g class="link" data-entity-1="ent0022" data-entity-2="ent0024" id="lnk31" data-source-line="121" data-link-type="dependency"><path d="M978,886.5 C978,906.43 978,922.18 978,940.9" style="stroke:#181818;stroke-width:1;" fill="none" id="Transacao-to-Categoria" codeLine="121"/><polygon points="978,945.9,982,936.9,978,940.9,974,936.9,978,945.9" fill="#181818" style="stroke:#181818;stroke-width:1;stroke-linejoin:miter;stroke-miterlimit:10;"/><text x="877" y="912.267" fill="#000" font-size="13" textLength="100.198">classificada em</text><text x="969.577" y="935.039" fill="#000" font-size="13">1</text></g><!--reverse link Transacao to Comentario--><g class="link" data-entity-1="ent0022" data-entity-2="ent0023" id="lnk32" data-source-line="122" data-link-type="composition"><path d="M836.13,870.69 C827.75,870.69 834.41,870.69 834.41,870.69 C834.41,870.69 834.41,921.78 834.41,962.29" style="stroke:#181818;stroke-width:1;" fill="none" id="Transacao-backto-Comentario" codeLine="122"/><polygon points="848.13,870.69,842.13,866.69,836.13,870.69,842.13,874.69,848.13,870.69" fill="#181818" style="stroke:#181818;stroke-width:1;stroke-linejoin:miter;stroke-miterlimit:10;"/><text x="792.41" y="905.697" fill="#000" font-size="13" textLength="41.603">possui</text><text x="832.034" y="872.828" fill="#000" font-size="13">1</text><text x="817.414" y="951.469" fill="#000" font-size="13" textLength="24.807">0..1</text></g><!--link Categoria to Natureza--><g class="link" data-entity-1="ent0024" data-entity-2="ent0004" id="lnk33" data-source-line="123" data-link-type="dependency"><path d="M903.92,1067.69 C767.87,1067.69 492,1067.69 492,1067.69 C492,1067.69 492,1069.57 492,1064.8" style="stroke:#181818;stroke-width:1;stroke-dasharray:7,7;" fill="none" id="Categoria-to-Natureza" codeLine="123"/><polygon points="492,1059.8,488,1068.8,492,1064.8,496,1068.8,492,1059.8" fill="#181818" style="stroke:#181818;stroke-width:1;stroke-linejoin:miter;stroke-miterlimit:10;"/></g><!--link AuthController to UsuarioRepository--><g class="link" data-entity-1="ent0006" data-entity-2="ent0012" id="lnk34" data-source-line="128" data-link-type="dependency"><path d="M483.57,90.21 C483.57,111.4 483.57,137.19 483.57,159.57" style="stroke:#181818;stroke-width:1;stroke-dasharray:7,7;" fill="none" id="AuthController-to-UsuarioRepository" codeLine="128"/><polygon points="483.57,164.57,487.57,155.57,483.57,159.57,479.57,155.57,483.57,164.57" fill="#181818" style="stroke:#181818;stroke-width:1;stroke-linejoin:miter;stroke-miterlimit:10;"/></g><!--link UsuarioController to UsuarioRepository--><g class="link" data-entity-1="ent0007" data-entity-2="ent0012" id="lnk35" data-source-line="129" data-link-type="dependency"><path d="M605.38,66.69 C588.41,66.69 575.41,66.69 575.41,66.69 C575.41,66.69 575.41,193.69 575.41,193.69 C575.41,193.69 567.51,193.69 550.53,193.69" style="stroke:#181818;stroke-width:1;stroke-dasharray:7,7;" fill="none" id="UsuarioController-to-UsuarioRepository" codeLine="129"/><polygon points="545.53,193.69,554.53,197.69,550.53,193.69,554.53,189.69,545.53,193.69" fill="#181818" style="stroke:#181818;stroke-width:1;stroke-linejoin:miter;stroke-miterlimit:10;"/></g><!--link ContaController to ContaRepository--><g class="link" data-entity-1="ent0008" data-entity-2="ent0013" id="lnk36" data-source-line="130" data-link-type="dependency"><path d="M809.35,66.69 C794.61,66.69 783.47,66.69 783.47,66.69 C783.47,66.69 783.47,184.69 783.47,184.69 C783.47,184.69 770.3,184.69 748.44,184.69" style="stroke:#181818;stroke-width:1;stroke-dasharray:7,7;" fill="none" id="ContaController-to-ContaRepository" codeLine="130"/><polygon points="743.44,184.69,752.44,188.69,748.44,184.69,752.44,180.69,743.44,184.69" fill="#181818" style="stroke:#181818;stroke-width:1;stroke-linejoin:miter;stroke-miterlimit:10;"/></g><!--link ContaController to CartaoDeCreditoRepository--><g class="link" data-entity-1="ent0008" data-entity-2="ent0014" id="lnk37" data-source-line="131" data-link-type="dependency"><path d="M881,90.21 C881,111.4 881,137.19 881,159.57" style="stroke:#181818;stroke-width:1;stroke-dasharray:7,7;" fill="none" id="ContaController-to-CartaoDeCreditoRepository" codeLine="131"/><polygon points="881,164.57,885,155.57,881,159.57,877,155.57,881,164.57" fill="#181818" style="stroke:#181818;stroke-width:1;stroke-linejoin:miter;stroke-miterlimit:10;"/></g><!--link TransacaoController to TransacaoRepository--><g class="link" data-entity-1="ent0009" data-entity-2="ent0015" id="lnk38" data-source-line="132" data-link-type="dependency"><path d="M1121.53,90.21 C1121.53,111.4 1121.53,137.19 1121.53,159.57" style="stroke:#181818;stroke-width:1;stroke-dasharray:7,7;" fill="none" id="TransacaoController-to-TransacaoRepository" codeLine="132"/><polygon points="1121.53,164.57,1125.53,155.57,1121.53,159.57,1117.53,155.57,1121.53,164.57" fill="#181818" style="stroke:#181818;stroke-width:1;stroke-linejoin:miter;stroke-miterlimit:10;"/></g><!--link ComentarioController to ComentarioRepository--><g class="link" data-entity-1="ent0010" data-entity-2="ent0016" id="lnk39" data-source-line="133" data-link-type="dependency"><path d="M1352.53,90.21 C1352.53,111.4 1352.53,137.19 1352.53,159.57" style="stroke:#181818;stroke-width:1;stroke-dasharray:7,7;" fill="none" id="ComentarioController-to-ComentarioRepository" codeLine="133"/><polygon points="1352.53,164.57,1356.53,155.57,1352.53,159.57,1348.53,155.57,1352.53,164.57" fill="#181818" style="stroke:#181818;stroke-width:1;stroke-linejoin:miter;stroke-miterlimit:10;"/></g><!--link UsuarioRepository to Usuario--><g class="link" data-entity-1="ent0012" data-entity-2="ent0019" id="lnk40" data-source-line="138" data-link-type="dependency"><path d="M489.18,221.69 C489.18,263.82 489.18,337.69 489.18,337.69 C489.18,337.69 547.32,337.69 602.08,337.69" style="stroke:#181818;stroke-width:1;stroke-dasharray:7,7;" fill="none" id="UsuarioRepository-to-Usuario" codeLine="138"/><polygon points="607.08,337.69,598.08,333.69,602.08,337.69,598.08,341.69,607.08,337.69" fill="#181818" style="stroke:#181818;stroke-width:1;stroke-linejoin:miter;stroke-miterlimit:10;"/></g><!--link ContaRepository to Conta--><g class="link" data-entity-1="ent0013" data-entity-2="ent0020" id="lnk41" data-source-line="139" data-link-type="dependency"><path d="M743.66,202.69 C760.77,202.69 774.04,202.69 774.04,202.69 C774.04,202.69 774.04,404.48 774.04,513.13" style="stroke:#181818;stroke-width:1;stroke-dasharray:7,7;" fill="none" id="ContaRepository-to-Conta" codeLine="139"/><polygon points="774.04,518.13,778.04,509.13,774.04,513.13,770.04,509.13,774.04,518.13" fill="#181818" style="stroke:#181818;stroke-width:1;stroke-linejoin:miter;stroke-miterlimit:10;"/></g><!--link CartaoDeCreditoRepository to CartaoDeCredito--><g class="link" data-entity-1="ent0014" data-entity-2="ent0021" id="lnk42" data-source-line="140" data-link-type="dependency"><path d="M819.62,221.74 C819.62,295.92 819.62,488.69 819.62,488.69 C819.62,488.69 617.53,488.69 617.53,488.69 C617.53,488.69 617.53,667.67 617.53,751.39" style="stroke:#181818;stroke-width:1;stroke-dasharray:7,7;" fill="none" id="CartaoDeCreditoRepository-to-CartaoDeCredito" codeLine="140"/><polygon points="617.53,756.39,621.53,747.39,617.53,751.39,613.53,747.39,617.53,756.39" fill="#181818" style="stroke:#181818;stroke-width:1;stroke-linejoin:miter;stroke-miterlimit:10;"/></g><!--link TransacaoRepository to Transacao--><g class="link" data-entity-1="ent0015" data-entity-2="ent0022" id="lnk43" data-source-line="141" data-link-type="dependency"><path d="M1066.93,193.69 C1048.4,193.69 1034.4,193.69 1034.4,193.69 C1034.4,193.69 1034.4,534.28 1034.4,702.35" style="stroke:#181818;stroke-width:1;stroke-dasharray:7,7;" fill="none" id="TransacaoRepository-to-Transacao" codeLine="141"/><polygon points="1034.4,707.35,1038.4,698.35,1034.4,702.35,1030.4,698.35,1034.4,707.35" fill="#181818" style="stroke:#181818;stroke-width:1;stroke-linejoin:miter;stroke-miterlimit:10;"/></g><!--link ComentarioRepository to Comentario--><g class="link" data-entity-1="ent0016" data-entity-2="ent0023" id="lnk44" data-source-line="142" data-link-type="dependency"><path d="M1391,221.7 C1391,325.78 1391,678.69 1391,678.69 C1391,678.69 810.59,678.69 810.59,678.69 C810.59,678.69 810.59,864.99 810.59,957.28" style="stroke:#181818;stroke-width:1;stroke-dasharray:7,7;" fill="none" id="ComentarioRepository-to-Comentario" codeLine="142"/><polygon points="810.59,962.28,814.59,953.28,810.59,957.28,806.59,953.28,810.59,962.28" fill="#181818" style="stroke:#181818;stroke-width:1;stroke-linejoin:miter;stroke-miterlimit:10;"/></g><!--link CategoriaRepository to Categoria--><g class="link" data-entity-1="ent0017" data-entity-2="ent0024" id="lnk45" data-source-line="143" data-link-type="dependency"><path d="M1623,221.31 C1623,365.25 1623,1011.69 1623,1011.69 C1623,1011.69 1226.41,1011.69 1056.99,1011.69" style="stroke:#181818;stroke-width:1;stroke-dasharray:7,7;" fill="none" id="CategoriaRepository-to-Categoria" codeLine="143"/><polygon points="1051.99,1011.69,1060.99,1015.69,1056.99,1011.69,1060.99,1007.69,1051.99,1011.69" fill="#181818" style="stroke:#181818;stroke-width:1;stroke-linejoin:miter;stroke-miterlimit:10;"/></g><?plantuml-src hLRDZjCm4BxdAQnU-95QbWC8hPPAeScAI6coSh882I7aJKnhRM8Nnrcn2tlWn8a7uJdsnPWcZUCqAMeBKQNQC-Fn-9lFur5YXPH0Lq8faQEKIPee9hXLN3E-8fBaACb8KTXAINPLAkebWaViZg8JmsH5ackoe96wpIXQUo1yaL73G8gIfucGd4hqof1dZ5Drkw98IBKKXeABb1PqXLwOsqZ2hzV2boUMzGYztli3OpUud4U7BTeS2erSNkR527sp47mK9WWBE6SzNtyuzDrFin1ZDuYzABQx2jkPUm68iUs4k5BTMwshcAr430ShI4A4uNE6NSUBGprtt3VDr5mU45LAUaUCbH04RDK64TcUCVE2TsuKUtEmQhpT7upcB8GzGjztSOGUp-mvR8UYomiNUo5-SYJACy6L55b6fSQwOXwoIxLibORYiYY9P69GjnQIGOq6UyUwdCBAhjl30SBkHHX1lh3djWXvGUpYEQJruGVsx6DnmdGb2gQ4P5G3nRYYyZD9Q8E9Dhf5PsTQEvrkMLSexMjBf2B2eJD9Kx3USvL6U--86lpt3alH1O2n-nZtHnIB6AwC0wbpGlZD7tu5NcYayVoVY3w7qfQXPyZbYgbD4lkiDYxq6Fc2Bn1B3Ka4vHXa7E3gIpEnOBmlBYXV4aDSLJ6WkEdXIi2SS7ILYIyb9Qames25EgieCqN9-gymov5nx_QClSof57qv5Fv4Cg2CeMf0WIT40ZyW4B8Tc6RQ5AbwAEXGW5qQTqBrW3KBUA5IHivfiYHhAffHl64BXoOi9nayN3bJZPF-BaCLVGWANoGaSu32A2MT8_q52oEA6v89QQYwZqakRjZs4UhyLDapfSqbGaapwgnfxYGiR8P3gTTcU-LVqQ-TqDh0LJCQIbyJwJ7tes4tKUp6t5g_edmpC7HGIg0xIMb-z6lvriLsyF3JFcnTdQcpx-FnDcUFU8ryU-Q5WLsz-b7z40KmS5nTtWxpsTp7qVCHUWeHZaucawUZ3RjE4LJYecJQQlnXoTAKye-IBPQgBZnQEQc4asajtHnxoszBZTEAkm-_SwkLQGyT-Xi6u_6qyjYIvxIc4_iCToibY9hkpBtNYrfQwuErZlJU3OKEJiwvV_a-HEzS77ipsqU-Dxy8JpiT5aHlzXE7RT3jdj04Gktr25QlazfXjzLLLLPRFSImpQxUmHhengeL0ts3DTIRRKBeDmt_AG-THWuIiMuDueEJqE_A37ojxIvCeshjxha6KBM6UgqEbjPWTzL5q1fggEhTDl8_?></g></svg>